<?xml version="1.0" standalone="no"?>
<!DOCTYPE svg PUBLIC "-//W3C//DTD SVG 20010904//EN"
 "http://www.w3.org/TR/2001/REC-SVG-20010904/DTD/svg10.dtd">
<svg version="1.0" xmlns="http://www.w3.org/2000/svg"
 width="866.000000pt" height="650.000000pt" viewBox="0 0 866.000000 650.000000"
 preserveAspectRatio="xMidYMid meet">

<g transform="translate(0.000000,650.000000) scale(0.100000,-0.100000)"
fill="#000000" stroke="none">
<path d="M2853 5395 c-100 -31 -205 -124 -251 -223 l-27 -57 0 -1870 0 -1870
26 -55 c35 -72 105 -149 166 -183 111 -60 38 -57 1555 -57 989 0 1402 3 1440
11 119 25 228 112 283 224 l30 60 3 1543 2 1544 -26 58 c-22 50 -76 108 -422
452 -369 368 -401 397 -455 417 -58 21 -59 21 -1170 20 -894 0 -1120 -3 -1154
-14z m2287 -134 c48 -26 782 -763 798 -801 10 -24 12 -343 10 -1543 l-3 -1512
-22 -41 c-26 -48 -88 -107 -140 -131 -36 -17 -120 -18 -1458 -18 l-1420 0 -46
22 c-61 31 -107 78 -135 138 l-24 50 0 1816 c0 2001 -4 1863 62 1943 18 23 57
50 92 67 l61 29 1095 0 c1053 0 1097 -1 1130 -19z"/>
<path d="M4192 4505 c-76 -55 -79 -228 -6 -442 19 -55 34 -108 34 -117 0 -30
-111 -308 -182 -458 -61 -127 -75 -148 -102 -159 -78 -31 -236 -115 -303 -161
-119 -82 -165 -163 -127 -227 23 -38 89 -66 139 -58 116 19 276 177 407 403
24 40 50 75 58 77 110 35 276 79 358 96 l104 22 61 -47 c78 -59 202 -119 274
-134 31 -7 92 -10 135 -8 75 3 81 5 109 36 50 56 35 115 -42 165 -64 42 -239
57 -425 35 l-101 -11 -56 59 c-68 72 -110 127 -171 221 l-46 72 14 43 c31 90
67 256 72 338 8 102 -11 183 -54 232 -23 24 -38 31 -78 35 -35 3 -55 0 -72
-12z m95 -27 c24 -19 35 -79 29 -148 -7 -68 -46 -254 -64 -300 l-9 -25 -16 32
c-48 93 -80 300 -58 380 19 69 73 97 118 61z m193 -896 c34 -40 60 -74 59 -76
-2 -1 -42 -10 -89 -20 -47 -10 -132 -31 -190 -48 -58 -17 -113 -33 -123 -36
-16 -4 -13 6 16 64 19 38 60 135 91 216 l58 147 58 -87 c32 -48 86 -120 120
-160z m512 -82 c72 -20 100 -94 55 -146 -35 -41 -110 -44 -202 -9 -72 27 -179
91 -210 125 -16 18 -16 19 6 24 75 17 298 20 351 6z m-1062 -216 c0 -19 -124
-188 -185 -253 -83 -88 -141 -119 -186 -101 -32 14 -45 45 -35 85 15 61 123
145 301 234 78 39 105 48 105 35z"/>
<path d="M3640 1995 l0 -315 50 0 50 0 0 115 0 115 51 0 c75 0 128 19 170 61
77 77 72 222 -9 289 -49 41 -88 50 -209 50 l-103 0 0 -315z m224 213 c13 -5
29 -21 35 -35 14 -30 14 -98 1 -124 -16 -28 -63 -49 -115 -49 l-45 0 0 116 0
117 50 -7 c28 -4 61 -12 74 -18z"/>
<path d="M4120 1995 l0 -314 63 -3 c252 -12 372 92 372 322 0 111 -22 176 -80
233 -58 59 -118 77 -251 77 l-104 0 0 -315z m239 210 c46 -23 79 -70 91 -131
18 -86 -3 -197 -48 -248 -26 -29 -92 -56 -139 -56 l-43 0 0 225 0 225 55 0
c31 0 69 -7 84 -15z"/>
<path d="M4680 1995 l0 -315 50 0 50 0 0 135 0 135 105 0 105 0 0 45 0 45
-105 0 -105 0 0 90 0 90 116 0 115 0 -3 43 -3 42 -162 3 -163 2 0 -315z"/>
</g>
</svg>
